<?xml version="1.0" encoding="UTF-8" standalone="no"?>
<svg
   width="158.57422pt"
   height="187.08594pt"
   viewBox="0 0 158.57422 187.08594"
   version="1.1"
   id="svg9"
   xmlns="http://www.w3.org/2000/svg"
   xmlns:svg="http://www.w3.org/2000/svg">
  <defs
     id="defs13" />
  <g
     id="surface1"
     transform="translate(-17.351563,-3.511719)">
    <path
       style="fill:#ffffff;fill-opacity:1;fill-rule:evenodd;stroke:none"
       d="M 0.257813,0.675781 H 193.01562 V 193.43359 H 0.257813 V 0.675781"
       id="path2" />
    <path
       style="fill:#cc0000;fill-opacity:1;fill-rule:evenodd;stroke:none"
       d="m 24.863281,49.894531 c 0,-19.433593 -5.699218,-26.691406 -5.699218,-32.648437 0,-2.851563 2.074218,-4.148438 4.40625,-4.148438 3.625,0 17.359375,7 33.683593,7 22.542969,0 31.609375,-16.585937 36.535157,-16.585937 4.144531,0 13.730467,14.769531 36.792967,14.769531 20.46875,0 28.5,-7.773437 34.20313,-7.773437 1.8125,0 4.14453,1.554687 4.14453,4.40625 0,4.144531 -3.88672,7.253906 -3.88672,25.132812 0,23.839844 10.88281,57.007813 10.88281,80.589845 0,19.94922 -10.10547,33.68359 -29.28125,43.26953 -4.92187,2.33594 -18.39453,7.77734 -25.39062,11.40234 -16.58203,8.29297 -20.21094,15.28907 -23.062504,15.28907 -4.144531,0 -4.144531,-6.21875 -25.132812,-15.02735 -16.0625,-6.73828 -20.210938,-7.77344 -27.464844,-10.88281 -19.433594,-8.29297 -28.242187,-25.91406 -28.242187,-47.67969 0,-24.874997 7.511718,-50.269529 7.511718,-67.113279 z m 2.054688,-0.496093 c 0,19.433593 -6.996094,44.828125 -6.996094,67.628902 0,18.39844 5.699219,36.01953 27.46875,45.86719 7.253906,3.36719 17.875,6.73438 26.425781,10.36328 19.175782,8.03125 21.507813,14.51172 24.355469,14.51172 2.593755,0 2.335935,-4.40625 22.285155,-14.77344 9.32813,-4.92187 16.32422,-6.99218 24.35547,-10.88281 18.13672,-8.80859 28.76172,-22.54297 28.76172,-41.45703 0,-24.359375 -10.88281,-55.453125 -10.88281,-80.328125 0,-19.433594 3.88671,-19.953125 3.88671,-24.617187 0,-1.554688 -1.03515,-3.109375 -3.10937,-3.109375 -3.36719,0 -13.99219,7.773437 -32.64844,7.773437 -22.80078,0 -33.683591,-14.253906 -37.050779,-14.253906 -3.886718,0 -12.957031,16.066406 -38.347656,16.066406 -16.324219,0 -28.242187,-6.734375 -31.351562,-6.734375 -1.554688,0 -2.59375,1.035156 -2.59375,2.847656 0,2.332032 5.441406,11.402344 5.441406,31.097657 z m -4.398438,68.425782 c 0,-26.16797 6.738282,-45.863282 6.738282,-70.218751 0,-17.621094 -5.445313,-26.433594 -5.445313,-28.765625 0,-0.777344 0.519531,-0.777344 1.296875,-0.777344 2.074219,0 14.25,6.21875 30.058594,6.21875 25.390625,0 35.753906,-15.546875 38.605469,-15.546875 2.589843,0 13.472652,13.734375 36.792972,13.734375 18.91406,0 29.79687,-7.515625 32.39062,-7.515625 0.77734,0 1.29297,0.519531 1.29297,1.296875 0,3.628906 -3.88672,7.773438 -3.88672,25.394531 0,21.765625 10.88281,55.191407 10.88281,79.550779 0,18.13672 -11.91797,31.35156 -28.5,39.38672 -4.92578,2.33203 -16.84375,6.99609 -23.32031,10.10547 -15.28906,7.51562 -19.691405,14.25 -21.507811,14.25 -2.328125,0 -5.957031,-6.73438 -23.316406,-13.73438 -8.035157,-3.36718 -16.84375,-5.95703 -25.136719,-10.10546 C 28.21875,150.73437 22.519531,136.48437 22.519531,117.82422 Z m 83.933599,0.26172 c -3.62891,0 -6.480474,1.29687 -10.363286,3.88672 1.035156,2.07422 1.554687,2.85156 1.554687,6.48046 v 23.83594 l 4.921879,-2.07031 c -1.03907,-2.07422 -1.03907,-2.85156 -1.03907,-5.96094 l 0.26172,-6.21875 h 1.29688 c 2.07031,10.10547 7.2539,13.47656 12.17578,13.73438 l 3.10937,-1.55469 c -6.73437,-1.03906 -10.10546,-3.88672 -11.66015,-13.99219 3.88672,-3.10937 6.73828,-6.48047 6.73828,-10.88281 0,-4.66406 -3.37109,-7.25781 -6.99609,-7.25781 z m -4.67969,16.82812 -0.25781,-12.17968 c 1.55078,-1.03516 2.84765,-1.29297 3.625,-1.29297 2.07421,0 3.88671,2.07422 3.88671,4.66406 0,6.21875 -4.14453,8.55078 -7.2539,8.80859 z m 15.3164,-24.36718 -3.625,1.8164 c 1.29297,2.33203 1.8125,3.36719 1.8125,5.95703 v 22.28516 c 0,0.77734 0.25782,1.29687 0.25782,2.07422 l 4.66406,-2.58985 c -1.03516,-2.59375 -1.29297,-2.85156 -1.29297,-5.96093 v -12.95703 l 4.92188,5.96093 4.14453,-9.32812 -0.25782,17.62109 5.69922,-3.11328 c -1.03515,-1.8125 -1.29297,-2.32813 -1.29297,-4.14453 l -0.77734,-19.17578 c 0,-3.625 0,-4.40235 0.77734,-7.25391 l -4.40625,2.33203 -4.40625,15.28907 z m -31.37109,14.77734 -8.546875,39.38672 4.664063,-2.85157 c -0.519532,-1.29687 -0.78125,-1.8125 -0.78125,-2.85156 l 1.296875,-6.21875 6.738281,-3.6289 1.296875,7.25781 5.179687,-2.33203 c -1.296875,-1.55469 -1.554687,-1.55469 -2.332031,-4.66407 l -5.699219,-25.39453 z m -2.84375,23.59765 2.851563,-13.99218 2.589843,11.40234 z m -51.039062,-15.3125 c 0,-2.07421 2.589843,-2.07421 4.144531,-2.07421 -0.257813,-2.07032 -0.777344,-3.625 -3.109375,-3.625 -2.589844,0 -4.664063,2.33203 -4.664063,5.4414 0,3.10938 2.589844,6.21875 7.515625,6.21875 5.957032,0 10.105469,-5.18359 10.105469,-10.36719 0,-11.14062 -13.476562,-12.95703 -13.476562,-20.21093 0,-2.33203 1.554687,-3.62891 3.628906,-3.62891 1.8125,0 3.367187,1.29688 3.367187,2.85156 0,0.51954 0.261719,0.51954 -0.777343,3.88672 h 4.664062 c 0,-1.55468 0,-1.55468 0.519531,-9.84765 -0.777343,0.51953 -1.296875,0.77734 -2.074218,0.77734 -1.554688,0 -3.367188,-1.55469 -5.957032,-1.55469 -5.183593,0 -8.292968,4.14844 -8.292968,8.29297 0,9.07031 13.734375,13.47266 13.734375,20.98828 0,3.10938 -2.59375,5.96094 -5.441407,5.96094 -2.074218,0 -3.886718,-1.55469 -3.886718,-3.10938 z M 98.683594,24.773438 85.472656,32.285156 c 1.8125,2.074219 2.589844,3.371094 2.589844,5.441407 l 0.261719,15.03125 c 0,3.367187 -0.261719,4.144531 -1.039063,6.734375 L 102.3125,50.941406 102.05469,46.277344 C 100.5,48.609375 99.464844,49.648438 97.390625,50.941406 L 92.46875,53.792969 V 42.390625 L 100.5,37.988281 c 3.10938,-1.816406 3.36719,-1.816406 3.36719,-4.40625 L 92.207031,39.28125 91.949219,30.992188 95.316406,29.4375 c 0.777344,-0.519531 4.148438,-0.519531 4.925784,-0.519531 z m 42.761716,71.78125 -5.17969,3.109375 c 3.10547,4.664067 3.10547,4.664067 3.36719,5.441407 l 3.36719,7.25391 0.26172,8.03125 c 0,2.59375 0,3.10937 -0.51953,6.48046 l 5.4414,-2.59375 c -1.03515,-2.58984 -1.29687,-4.14453 -1.29687,-6.47656 v -8.03125 c 7.25781,-11.921874 7.51562,-13.476561 7.51562,-17.105467 0,-2.847657 -1.03906,-4.144532 -3.36718,-5.179688 l -2.33204,0.519531 c 1.8125,1.554688 2.33204,2.589844 2.33204,4.921875 0,3.628907 -1.81641,8.031249 -5.44141,14.511719 l -2.85156,-4.92578 c -1.03907,-1.55469 -1.03907,-2.847657 -1.29688,-5.957032 z M 70.449219,41.105469 65.265625,43.957031 c 0.777344,2.332032 1.296875,3.367188 1.296875,5.699219 l 0.257813,21.507813 4.925781,-2.589844 C 70.96875,65.464844 70.707031,63.910156 70.707031,62.613281 l -0.257812,-8.035156 7.253906,-3.886719 0.261719,7.777344 c 0,1.554688 -0.261719,2.589844 -1.039063,6.996094 l 5.703125,-3.371094 c -0.777343,-1.8125 -1.039062,-2.847656 -1.039062,-4.921875 V 34.367188 l -4.921875,3.371093 c 0.777344,1.8125 1.035156,2.589844 1.035156,4.664063 v 5.441406 l -7.511719,3.628906 z M 92.472656,102.54297 93.25,96.84375 l 4.925781,-2.074219 1.035157,6.218749 c 0,0.51953 -0.257813,1.29688 -0.257813,2.07422 l 5.699215,-3.109375 c -1.55468,-1.554687 -2.07421,-2.59375 -2.85156,-5.960937 l -4.664061,-22.542969 -1.8125,1.554687 -7.515625,36.792974 5.703125,-3.10938 c -1.039063,-1.55469 -1.039063,-1.8125 -1.039063,-4.14453 z m 1.042969,-8.554689 2.332031,-11.402343 1.8125,9.328125 z m 46.890625,-25.65625 c 0,-13.992187 -4.14453,-17.101562 -8.03516,-17.101562 -5.69921,0 -8.54687,5.441406 -8.54687,15.03125 0,11.398437 2.58984,18.394531 8.03125,18.394531 5.69922,0 8.55078,-6.996094 8.55078,-16.324219 z m -12.44141,-3.128906 c 0,-7.511719 1.55078,-10.621094 3.88282,-10.621094 2.59375,0 4.40625,4.144532 4.40625,17.617188 0,5.445312 -1.55469,8.554687 -3.36719,8.554687 -2.85156,0 -4.92188,-5.183593 -4.92188,-15.550781 z m -80.843746,-13.980469 -0.257813,9.070313 1.8125,-1.554688 c 0.519532,-5.183593 1.039063,-6.21875 4.148438,-8.292968 l 0.515625,21.765625 c 0,0.777343 0,0.777343 -0.777344,7 l 6.21875,-3.109375 C 57.484375,73.765625 56.96875,73.25 56.96875,70.140625 L 56.191406,48.632813 c 2.332032,0 3.109375,0.257812 5.179688,4.664062 L 63.1875,53.035156 c -1.296875,-5.179687 -1.554687,-6.734375 -2.074219,-9.84375 z M 61.113281,118.58203 56.1875,95.261719 l -1.8125,0.777344 -7.253906,36.792967 4.664062,-2.58984 c -0.519531,-1.8125 -0.777343,-2.58985 -0.777343,-3.62891 l 1.292968,-6.73437 4.664063,-2.07422 0.777344,2.07422 c 0.777343,2.07031 0.777343,3.36718 0.777343,4.14453 0,0.51953 -0.257812,1.03515 -0.515625,2.33203 l 5.179688,-2.58984 c -1.035156,-2.07422 -1.554688,-3.3711 -2.070313,-5.1836 z m -8.542968,-1.27734 2.070312,-10.36328 1.816406,8.55078 z m 26.152343,-33.703127 -4.664062,2.589843 c 1.039062,1.554688 1.554687,2.332032 2.332031,5.183594 l 3.628906,14.51172 c 0.519532,1.55469 0.777344,3.10937 1.035157,7.51172 l 2.074218,-1.29297 6.476563,-34.984376 -4.402344,2.59375 c 0.257813,1.554687 0.515625,2.070312 0.515625,2.847656 l -2.847656,17.88281 z m 36.003904,-21.257813 -13.21093,7.773438 0.25781,6.996093 1.55469,-1.296875 c 1.03515,-5.441406 1.29296,-5.441406 3.36718,-6.21875 l 0.25782,25.394532 c 0,0.519531 0,1.8125 -0.25782,3.625 l 5.44141,-3.105469 c -1.03516,-2.59375 -1.55469,-4.148438 -1.55469,-5.703125 L 110.0625,67.523438 c 0.51953,-0.257813 0.78125,-0.515625 1.29688,-0.515625 0.77734,0 1.55468,1.292968 3.10937,4.664062 l 1.55469,0.515625 c -1.29688,-6.476562 -1.29688,-6.996094 -1.29688,-9.84375 z m 28.53125,-16.839844 -3.625,2.59375 c 2.07031,1.035157 2.84766,2.074219 2.84766,6.734375 l -0.25781,23.582032 4.40625,-2.332032 c -1.29688,-2.074218 -1.55469,-2.59375 -1.55469,-5.960937 l 0.25781,-15.027344 7.25391,14.769531 1.03515,-0.257812 -1.03515,-13.21875 1.29687,-10.882813 c 0,-4.921875 -0.26172,-7.511718 -2.59375,-9.066406 l -2.58984,0.257813 c 2.33203,1.296875 3.10937,2.332031 3.10937,4.40625 l -1.8125,13.730468 -3.36718,-5.441406 c -1.81641,-2.851562 -1.81641,-2.851562 -3.3711,-3.886719 z m -73.597654,42.765625 -6.21875,3.886719 c 1.039063,2.074219 1.554688,3.628906 1.554688,6.476563 l 0.261719,23.839847 11.140625,-6.73828 c -0.257813,-2.07032 -0.257813,-2.58985 -0.257813,-3.36719 0,-1.03516 0,-2.58985 0.257813,-4.66406 l -1.8125,1.8125 c -1.039063,5.70312 -1.554688,6.48046 -4.925782,7.25781 z m 52.867184,-30.589843 -4.92578,3.109375 c 0.77735,2.332031 1.03907,3.371093 1.03907,5.183593 l -0.26172,25.914063 5.18359,-3.113281 c -1.03516,-2.332032 -1.29687,-3.367188 -1.29687,-4.664063 l 0.26171,-26.429687"
       id="path4" />
  </g>
</svg>
